<?xml version="1.0" encoding="UTF-8" standalone="no"?>
<!-- Created with Inkscape (http://www.inkscape.org/) -->

<svg
   xmlns:osb="http://www.openswatchbook.org/uri/2009/osb"
   xmlns:dc="http://purl.org/dc/elements/1.1/"
   xmlns:cc="http://creativecommons.org/ns#"
   xmlns:rdf="http://www.w3.org/1999/02/22-rdf-syntax-ns#"
   xmlns:svg="http://www.w3.org/2000/svg"
   xmlns="http://www.w3.org/2000/svg"
   xmlns:sodipodi="http://sodipodi.sourceforge.net/DTD/sodipodi-0.dtd"
   xmlns:inkscape="http://www.inkscape.org/namespaces/inkscape"
   width="297mm"
   height="210mm"
   viewBox="0 0 297 210"
   id="svg4152"
   version="1.1"
   inkscape:version="0.91 r13725"
   sodipodi:docname="word-back.svg">
  <defs
     id="defs4154">
    <linearGradient
       id="linearGradient4735"
       osb:paint="solid">
      <stop
         style="stop-color:#000000;stop-opacity:1;"
         offset="0"
         id="stop4737" />
    </linearGradient>
    <clipPath
       clipPathUnits="userSpaceOnUse"
       id="clipPath16">
      <path
         d="M 0,36 36,36 36,0 0,0 0,36 Z"
         id="path18" />
    </clipPath>
  </defs>
  <sodipodi:namedview
     inkscape:document-units="mm"
     pagecolor="#ffffff"
     bordercolor="#666666"
     borderopacity="1.0"
     inkscape:pageopacity="0.0"
     inkscape:pageshadow="2"
     inkscape:zoom="0.61399264"
     inkscape:cx="510.212"
     inkscape:cy="332.90258"
     inkscape:current-layer="layer1"
     id="namedview4156"
     showgrid="false"
     inkscape:window-width="1920"
     inkscape:window-height="1022"
     inkscape:window-x="1920"
     inkscape:window-y="0"
     inkscape:window-maximized="1" />
  <metadata
     id="metadata4158">
    <rdf:RDF>
      <cc:Work
         rdf:about="">
        <dc:format>image/svg+xml</dc:format>
        <dc:type
           rdf:resource="http://purl.org/dc/dcmitype/StillImage" />
        <dc:title />
      </cc:Work>
    </rdf:RDF>
  </metadata>
  <g
     inkscape:label="Layer 1"
     inkscape:groupmode="layer"
     id="layer1">
    <text
       xml:space="preserve"
       style="font-style:normal;font-variant:normal;font-weight:normal;font-stretch:normal;font-size:50.79999924px;line-height:125%;font-family:'Noto Sans Syriac Western';-inkscape-font-specification:'Noto Sans Syriac Western';letter-spacing:0px;word-spacing:0px;fill:#000000;fill-opacity:1;stroke:none;stroke-width:1px;stroke-linecap:butt;stroke-linejoin:miter;stroke-opacity:1"
       x="149.13937"
       y="48.123871"
       id="text4820"
       sodipodi:linespacing="125%"><tspan
         sodipodi:role="line"
         x="149.13937"
         y="48.123871"
         id="tspan4824"
         style="font-style:normal;font-variant:normal;font-weight:300;font-stretch:normal;font-family:Ubuntu;-inkscape-font-specification:'Ubuntu Light';text-align:center;text-anchor:middle">WORD</tspan></text>
    <path
       id="path4828"
       d="m 116.50559,136.85639 -13.05047,-13.18856 0,-18.69104 0,-18.691051 13.16438,-13.165337 13.16432,-13.16534 18.60054,0 18.60058,0 13.27997,13.141889 13.27998,13.141888 0,18.738661 0,18.73866 -13.16534,13.16439 -13.16533,13.16439 -18.82913,0 -18.82909,0 -13.05041,-13.18855 z m 61.51214,-2.47674 12.04099,-12.17912 0,-17.20087 0,-17.200881 -12.13238,-12.27051 -12.13239,-12.270523 -17.27016,0 -17.27015,0 -12.24788,12.246943 -12.24796,12.24693 0,17.247351 0,17.24735 12.15519,12.15623 12.15511,12.15622 17.45432,0 17.45432,0 12.04099,-12.17912 z m -58.00386,-0.89453 -11.78821,-11.78928 0,-16.7197 0,-16.719711 11.90355,-11.76541 11.90348,-11.765414 16.46727,0 16.46727,0 11.90356,11.765414 11.90356,11.76541 0,16.719711 0,16.7197 -11.78821,11.78928 -11.78822,11.78928 -16.69796,0 -16.69796,0 -11.78813,-11.78928 z m 56.05377,-0.91633 11.42233,-11.42123 0,-16.14646 0,-16.146461 -11.42123,-11.42233 -11.42123,-11.422326 -16.2393,0 -16.2393,0 -11.32792,11.330036 -11.328,11.33004 -0.005,16.325481 -0.005,16.32547 11.33338,11.33451 11.33332,11.3345 16.2382,0 16.23821,0 11.42232,-11.42123 z m -30.13644,8.55996 c -2.59774,-0.12886 -6.43994,-0.46787 -7.06407,-0.62329 -0.3532,-0.0879 -1.13759,-0.25837 -1.74308,-0.3787 -0.6055,-0.12034 -1.26377,-0.33242 -1.46282,-0.4713 -0.19905,-0.13887 -0.48804,-0.25324 -0.64219,-0.25413 -0.50524,-0.003 -4.12416,-2.2655 -5.61242,-3.5089 -2.55848,-2.13754 -4.40424,-4.42111 -5.78062,-7.15177 -0.83264,-1.65192 -1.09564,-2.4448 -1.66689,-5.02545 -0.30405,-1.37353 -0.35161,-2.11436 -0.28269,-4.40358 0.0769,-2.55463 0.12862,-2.88397 0.72033,-4.58706 0.83023,-2.38963 1.61019,-3.91175 2.84774,-5.55752 1.14142,-1.51791 4.15333,-4.40581 5.31723,-5.0983 l 0.77694,-0.46227 -0.13476,0.60502 c -0.22997,1.03248 -0.15573,3.71696 0.11873,4.29306 0.56715,1.19043 1.01251,2.02302 1.30191,2.43386 0.30168,0.4283 0.28835,0.45098 -1.02517,1.74308 -3.08414,3.03388 -4.00563,5.66894 -3.28287,9.3876 0.47848,2.46188 1.61271,4.70859 3.2441,6.42603 3.63182,3.82338 9.05363,5.8592 16.20543,6.08493 2.71074,0.0856 3.38349,0.0467 5.13751,-0.29685 2.47819,-0.48539 4.29099,-1.00804 5.52275,-1.59226 0.51464,-0.24409 0.99851,-0.4438 1.07527,-0.4438 0.31413,0 1.91657,-1.1708 2.28559,-1.66993 0.48627,-0.6577 0.69558,-2.50062 0.40549,-3.57018 -0.11111,-0.40963 -0.45102,-1.12072 -0.75536,-1.58019 -0.45525,-0.68729 -0.80534,-0.95038 -1.97479,-1.48399 -1.22077,-0.55704 -2.32188,-0.89321 -6.4885,-1.981 -0.36492,-0.0953 -0.88638,-0.17321 -1.15883,-0.17321 -0.27244,0 -0.63989,-0.0774 -0.81655,-0.17191 -0.17666,-0.0945 -1.42307,-0.42652 -2.7698,-0.73772 -2.48701,-0.5747 -5.98872,-1.69894 -6.31831,-2.02853 -0.0996,-0.0996 -0.31966,-0.18104 -0.48908,-0.18104 -0.29406,0 -1.73886,-0.78781 -3.09745,-1.68893 -0.6976,-0.46271 -3.48783,-3.22437 -4.24904,-4.20554 -0.58474,-0.75371 -1.51256,-2.57068 -1.97896,-3.87547 -1.05197,-2.94291 -0.91047,-5.46795 0.44473,-7.93612 1.24534,-2.268091 2.67063,-3.574391 4.90444,-4.495011 0.58027,-0.23914 1.05502,-0.50218 1.05502,-0.58452 0,-0.0824 0.32479,-0.14973 0.72174,-0.14973 0.65094,0 0.87465,0.14475 2.28066,1.47566 0.85741,0.81161 1.77327,1.8414 2.03525,2.28843 l 0.47632,0.812781 -0.71966,0.74155 c -0.94967,0.97858 -1.49234,2.16593 -1.48875,3.25739 0.004,1.21621 0.43526,2.92501 0.89523,3.54717 0.21245,0.28735 0.38628,0.59309 0.38628,0.67942 0,0.55515 4.80883,4.23877 6.2982,4.8245 0.32032,0.12597 0.99522,0.41324 1.4998,0.63837 1.79954,0.80295 5.01263,1.75918 7.61452,2.26613 3.27066,0.63725 6.65943,1.59049 7.36762,2.07246 0.26786,0.1823 0.59813,0.33481 0.73393,0.33891 0.13579,0.004 0.53276,0.2518 0.88216,0.55045 0.34939,0.29864 0.74652,0.54299 0.88252,0.54299 0.51831,0 2.28485,1.92354 2.83521,3.08718 0.52404,1.10798 0.54558,1.24947 0.47499,3.1192 -0.0714,1.89006 -0.1075,2.03483 -1.03296,4.13765 -1.19519,2.71569 -1.61884,3.33931 -3.47981,5.12232 -0.53304,0.51071 -1.35871,1.19962 -1.83482,1.53091 -1.54594,1.07569 -5.81707,3.05557 -7.65451,3.54826 -2.19619,0.58887 -8.06662,0.99524 -11.74288,0.81289 z m 27.1381,-15.91401 c -0.39566,-0.34034 -0.50019,-0.59545 -0.5148,-1.25646 -0.0264,-1.19438 0.40487,-1.96043 2.15227,-3.82285 1.98839,-2.11925 2.32302,-2.97047 1.96515,-4.99874 -0.12903,-0.73124 -0.3132,-1.47956 -0.40927,-1.66293 -0.18214,-0.34765 -0.0303,-0.67211 0.89844,-1.91984 l 0.44801,-0.60189 0.47824,0.69363 c 1.38841,2.01375 1.7271,4.41879 0.87886,6.24071 -0.50122,1.07658 -1.28375,1.9277 -3.03562,3.30172 -0.65595,0.51447 -1.46932,1.22351 -1.80749,1.57563 -0.524,0.54564 -0.59626,0.72489 -0.48904,1.2131 0.0692,0.31507 0.33259,0.81857 0.5853,1.11891 l 0.45947,0.54605 -0.55652,0 c -0.3181,0 -0.76923,-0.18296 -1.053,-0.42704 z m -9.79901,-9.59356 c -3.42328,-0.89109 -5.14657,-1.55264 -6.7161,-2.57825 -0.51502,-0.33654 -1.01921,-0.61189 -1.12043,-0.61189 -0.64399,0 -5.35444,-4.65602 -6.86821,-6.78885 -0.32231,-0.45412 -0.88176,-1.17368 -1.24322,-1.59901 -1.22151,-1.43738 -1.616,-1.97457 -2.59852,-3.5385 -1.53181,-2.438271 -2.64568,-3.833161 -3.69617,-4.628711 -1.51782,-1.14945 -2.05118,-1.32327 -3.25635,-1.06126 -0.55781,0.12127 -1.22062,0.30293 -1.47291,0.4037 -0.83285,0.33265 -3.68228,0.36634 -5.87142,0.0694 -1.16052,-0.1574 -2.75763,-0.37496 -3.54914,-0.48347 -1.40054,-0.192 -1.45735,-0.18464 -2.1199,0.27451 -1.08693,0.75324 -1.75344,0.57431 -2.75063,-0.73842 -0.66647,-0.87737 -0.65101,-1.28696 0.0261,-0.69225 0.22666,0.19907 0.71951,0.51973 1.09522,0.71256 l 0.68312,0.35061 0.54561,-0.52273 c 0.48792,-0.46746 0.6388,-0.51216 1.42692,-0.42269 1.0021,0.11376 1.25335,-0.0493 3.96068,-2.57032 0.78541,-0.73138 1.673,-1.45645 1.97242,-1.61129 0.29941,-0.15483 0.54438,-0.34784 0.54438,-0.42892 0,-0.18227 1.42093,-0.81763 2.69497,-1.20505 2.64037,-0.8029 6.02864,0.0687 9.00538,2.31653 1.43288,1.08202 6.37791,6.03944 7.39506,7.41359 0.38154,0.51545 0.95344,1.21727 1.27087,1.5596 0.31744,0.34232 1.10776,1.246861 1.75628,2.010081 2.23148,2.62614 5.01925,4.18913 9.47064,5.3098 2.30783,0.58101 2.56792,0.61224 3.21095,0.38556 1.61525,-0.5694 2.78654,-2.13458 2.54818,-3.40511 -0.20715,-1.10425 -2.44406,-3.09684 -4.81923,-4.292891 -2.89209,-1.45635 -4.84808,-1.86569 -9.63862,-2.0171 l -3.80221,-0.12017 -2.2863,-2.749 c -1.52204,-1.83006 -2.21374,-2.79447 -2.06923,-2.88502 0.25722,-0.16118 5.89875,-1.48398 7.73986,-1.8148 0.7064,-0.12694 2.35775,-0.2285 3.66964,-0.22569 2.00694,0.004 2.76361,0.0941 4.77054,0.56655 1.31191,0.30879 2.67426,0.66227 3.02747,0.78549 2.93425,1.02369 6.003,2.89216 8.12381,4.94634 2.68086,2.59665 3.89026,5.053551 4.09076,8.310391 0.28762,4.67211 -1.25391,8.27099 -4.32686,10.10154 -0.56376,0.33583 -1.43383,0.75364 -1.93348,0.92846 -2.25602,0.78937 -6.86802,1.07297 -8.88995,0.54666 z m -28.0007,-23.846921 c 0.0613,-0.15963 0.1016,-0.46926 0.0897,-0.68806 -0.0158,-0.28865 -0.054,-0.24677 -0.13942,0.15262 -0.1035,0.48398 -0.19503,0.55044 -0.75809,0.55044 -0.5656,0 -0.6473,-0.0602 -0.69952,-0.51567 -0.0325,-0.28362 0.0395,-0.63453 0.16008,-0.7798 0.1328,-0.16001 0.1451,-0.26413 0.0312,-0.26413 -0.29503,0 -0.55791,0.96387 -0.38809,1.42295 0.12246,0.33102 0.29375,0.41188 0.87258,0.41188 0.48748,0 0.7562,-0.0938 0.83158,-0.29023 z m 32.20323,13.594331 c -1.20088,-0.65281 -11.02452,-3.76301 -11.88556,-3.76301 -0.20736,0 -0.96614,-0.67437 -1.85806,-1.651351 -1.30643,-1.43102 -1.44984,-1.65133 -1.07488,-1.65129 0.89015,9e-5 4.74984,0.7114 5.78266,1.0657 0.58956,0.20224 1.39685,0.42335 1.79398,0.49134 1.36749,0.234151 6.87302,2.958711 8.34725,4.130871 l 0.57692,0.45871 -0.41954,0.59315 c -0.46996,0.66443 -0.58525,0.69419 -1.26277,0.32588 z m -24.98191,-0.37936 c -0.45242,-0.46726 0.34414,-2.65607 1.28579,-3.53316 l 0.456,-0.42473 0.31966,0.51647 c 0.17582,0.28406 0.70178,1.00477 1.16882,1.60159 l 0.84914,1.08511 -0.75407,0.33761 c -0.81175,0.36343 -3.09948,0.65039 -3.32534,0.41711 z"
       inkscape:connector-curvature="0" />
    <text
       xml:space="preserve"
       style="font-style:normal;font-variant:normal;font-weight:normal;font-stretch:normal;font-size:50.79999924px;line-height:125%;font-family:'Noto Sans Syriac Western';-inkscape-font-specification:'Noto Sans Syriac Western';letter-spacing:0px;word-spacing:0px;fill:#000000;fill-opacity:1;stroke:none;stroke-width:1px;stroke-linecap:butt;stroke-linejoin:miter;stroke-opacity:1"
       x="148.47896"
       y="197.99191"
       id="text4820-0"
       sodipodi:linespacing="125%"><tspan
         sodipodi:role="line"
         x="148.47896"
         y="197.99191"
         id="tspan4824-9"
         style="font-style:normal;font-variant:normal;font-weight:300;font-stretch:normal;font-family:Ubuntu;-inkscape-font-specification:'Ubuntu Light';text-align:center;text-anchor:middle">CARD</tspan></text>
  </g>
</svg>
