<?xml version="1.0" encoding="UTF-8" standalone="no"?>
<!-- Created with Inkscape (http://www.inkscape.org/) -->

<svg
   xmlns:dc="http://purl.org/dc/elements/1.1/"
   xmlns:cc="http://creativecommons.org/ns#"
   xmlns:rdf="http://www.w3.org/1999/02/22-rdf-syntax-ns#"
   xmlns:svg="http://www.w3.org/2000/svg"
   xmlns="http://www.w3.org/2000/svg"
   xmlns:sodipodi="http://sodipodi.sourceforge.net/DTD/sodipodi-0.dtd"
   xmlns:inkscape="http://www.inkscape.org/namespaces/inkscape"
   width="297mm"
   height="210mm"
   viewBox="0 0 297 210"
   id="svg3360"
   version="1.1"
   inkscape:version="0.91 r13725"
   sodipodi:docname="word-front.svg">
  <defs
     id="defs3362">
    <inkscape:perspective
       id="perspective33"
       inkscape:persp3d-origin="271.11176 : 170.14217 : 1"
       inkscape:vp_z="542.22351 : 255.21326 : 1"
       inkscape:vp_y="0 : 1000 : 0"
       inkscape:vp_x="0 : 255.21326 : 1"
       sodipodi:type="inkscape:persp3d" />
  </defs>
  <sodipodi:namedview
     inkscape:document-units="mm"
     pagecolor="#ffffff"
     bordercolor="#666666"
     borderopacity="1.0"
     inkscape:pageopacity="0.0"
     inkscape:pageshadow="2"
     inkscape:zoom="0.49140426"
     inkscape:cx="-261.46216"
     inkscape:cy="299.69879"
     inkscape:current-layer="g4236"
     id="namedview3364"
     showgrid="false"
     inkscape:window-width="1920"
     inkscape:window-height="1022"
     inkscape:window-x="1920"
     inkscape:window-y="0"
     inkscape:window-maximized="1" />
  <metadata
     id="metadata3366">
    <rdf:RDF>
      <cc:Work
         rdf:about="">
        <dc:format>image/svg+xml</dc:format>
        <dc:type
           rdf:resource="http://purl.org/dc/dcmitype/StillImage" />
        <dc:title />
      </cc:Work>
    </rdf:RDF>
  </metadata>
  <g
     inkscape:label="Layer 1"
     inkscape:groupmode="layer"
     id="layer1">
    <g
       transform="matrix(0.6615288,0,0,0.6615288,-793.62712,-368.25343)"
       id="g581">
      <g
         id="g4236"
         transform="matrix(0.67545847,0,0,0.67545847,390.32583,282.79352)">
        <text
           xml:space="preserve"
           style="font-style:normal;font-weight:normal;font-size:101.94512939px;line-height:125%;font-family:sans-serif;text-align:center;letter-spacing:0px;word-spacing:0px;text-anchor:middle;fill:#000000;fill-opacity:1;stroke:none;stroke-width:1px;stroke-linecap:butt;stroke-linejoin:miter;stroke-opacity:1"
           x="1534.0924"
           y="574.2641"
           sodipodi:linespacing="125%"
           id="text10"><tspan
             sodipodi:role="line"
             id="wordText"
             x="1534.0924"
             y="574.2641"
             style="font-style:normal;font-variant:normal;font-weight:300;font-stretch:normal;font-family:Ubuntu;-inkscape-font-specification:'Ubuntu Light';text-align:center;text-anchor:middle">The Word</tspan></text>
        <g
           transform="matrix(0,-1.3895254,-1.263205,0,1593.7364,778.17346)"
           id="g2989">
          <path
             inkscape:connector-curvature="0"
             id="path5730"
             d="m 92.998,7.127 5.62,0 0,-2.13 -4.997,0.024 0,-5.021 -2.093,0 0,5.62 -2.58,2.567 1.483,1.47 2.567,-2.53 z" />
          <path
             inkscape:connector-curvature="0"
             id="path5732"
             d="m 12.3,82.518 c -0.686,-0.661 -1.759,-0.661 -2.418,0 -0.661,0.686 -0.647,1.757 0,2.417 l 5.184,5.184 c 0.686,0.647 1.757,0.647 2.417,0 0.661,-0.686 0.661,-1.757 0,-2.417 L 12.3,82.518 Z" />
          <path
             inkscape:connector-curvature="0"
             id="path5734"
             d="m 7.813,86.979 c -0.648,-0.661 -1.732,-0.661 -2.405,0.024 -0.659,0.648 -0.659,1.72 0.013,2.405 l 5.196,5.184 c 0.662,0.661 1.732,0.661 2.405,-0.024 0.661,-0.66 0.661,-1.732 -0.024,-2.38 L 7.813,86.979 Z" />
          <path
             inkscape:connector-curvature="0"
             id="path5736"
             d="m 6.841,99.266 c 0.512,0.073 1.047,-0.075 1.434,-0.462 0.661,-0.686 0.661,-1.757 0,-2.418 L 3.652,91.787 c -0.661,-0.672 -1.746,-0.672 -2.405,0 -0.437,0.438 -0.585,1.048 -0.437,1.607 l 1.459,4.487 4.572,1.385 z" />
          <path
             inkscape:connector-curvature="0"
             id="path5738"
             d="m 76.736,27.725 -2.68,2.704 c -0.847,0.935 -1.37,2.168 -1.37,3.539 0,1.458 0.599,2.766 1.545,3.726 l 15.464,15.453 c 4.961,4.96 8.025,11.825 8.025,19.39 C 97.721,87.701 85.446,100 70.294,100 55.129,100 42.842,87.701 42.842,72.536 l 0.063,-37.471 c 0,-9.309 -7.54,-16.848 -16.861,-16.848 -9.296,0 -16.835,7.539 -16.835,16.848 0,4.648 1.869,8.86 4.935,11.926 l 12.561,12.548 c 2.579,2.566 4.161,6.118 4.161,10.03 0,3.926 -1.583,7.477 -4.161,10.032 l -6.455,6.442 -6.256,-6.281 6.579,-6.467 c 0.848,-0.947 1.358,-2.192 1.358,-3.552 0,-1.433 -0.584,-2.778 -1.531,-3.727 L 6.916,52.709 C 2.63,48.087 0,41.869 0,35.065 0,20.723 11.639,9.122 25.969,9.122 c 14.33,0 25.944,11.602 25.944,25.943 l -0.025,37.471 c 0,10.181 8.237,18.404 18.406,18.404 10.156,0 18.404,-8.224 18.404,-18.404 0,-5.06 -2.068,-9.658 -5.407,-12.997 L 67.938,44.087 c -2.578,-2.58 -4.161,-6.106 -4.161,-10.019 0,-3.925 1.583,-7.477 4.161,-10.055 l 3.889,-3.901 c 0.25,-0.236 0.386,-0.585 0.386,-0.946 0,-0.312 -0.087,-0.612 -0.286,-0.847 l -2.068,-2.394 c -0.249,-0.336 -0.386,-0.747 -0.386,-1.209 0,0 -1.396,-3.501 11.377,-6.592 1.819,-0.435 3.912,-0.31 5.32,1.085 l 3.314,2.867 c 1.359,1.433 1.446,3.525 0.96,5.346 -3.363,12.698 -6.829,11.24 -6.829,11.24 -0.46,-0.013 -0.872,-0.163 -1.208,-0.411 L 80.064,26.12 c -0.237,-0.199 -0.523,-0.298 -0.836,-0.312 -0.36,-0.012 -0.723,0.137 -0.959,0.374 l -1.533,1.543" />
        </g>
      </g>
    </g>
  </g>
</svg>
